<svg id="Icons" height="512" viewBox="0 0 60 60" width="512" xmlns="http://www.w3.org/2000/svg"><g fill="#0d1a35"><path d="m18 23v4h-6.39a5.332 5.332 0 0 1 -4.44-2.38l-5.82-8.49a2 2 0 0 1 3.3-2.26l5.84 8.51a1.331 1.331 0 0 0 1.12.62z"/><path d="m11.61 33h6.39v4h-6.39a1.331 1.331 0 0 0 -1.12.62l-5.84 8.51a2 2 0 0 1 -3.3-2.26l5.82-8.49a5.332 5.332 0 0 1 4.44-2.38z"/><path d="m17.47 41.47-5.17 4.13a5.379 5.379 0 0 0 -2.3 4.4v7a2 2 0 0 0 4 0v-7a1.382 1.382 0 0 1 .62-1.15.6.6 0 0 0 .13-.09l4.44-3.54z"/><path d="m17.47 18.53-5.17-4.13a5.379 5.379 0 0 1 -2.3-4.4v-7a2 2 0 0 1 4 0v7a1.382 1.382 0 0 0 .62 1.15.6.6 0 0 1 .13.09l4.44 3.54z"/><path d="m42 23v4h6.39a5.332 5.332 0 0 0 4.44-2.38l5.82-8.49a2 2 0 0 0 -3.3-2.26l-5.84 8.51a1.331 1.331 0 0 1 -1.12.62z"/><path d="m48.39 33h-6.39v4h6.39a1.331 1.331 0 0 1 1.12.62l5.84 8.51a2 2 0 1 0 3.3-2.26l-5.82-8.49a5.332 5.332 0 0 0 -4.44-2.38z"/><path d="m42.53 41.47 5.17 4.13a5.379 5.379 0 0 1 2.3 4.4v7a2 2 0 0 1 -4 0v-7a1.382 1.382 0 0 0 -.62-1.15.6.6 0 0 1 -.13-.09l-4.44-3.54z"/><path d="m42.53 18.53 5.17-4.13a5.379 5.379 0 0 0 2.3-4.4v-7a2 2 0 0 0 -4 0v7a1.382 1.382 0 0 1 -.62 1.15.6.6 0 0 0 -.13.09l-4.44 3.54z"/></g><rect fill="#153a77" height="42" rx="13" width="26" x="17" y="9"/><path d="m27 23v27.65a12.3 12.3 0 0 1 -2-.65v-27z" fill="#59d1d1"/><path d="m23 36.86v12.09a12.755 12.755 0 0 1 -2-1.58v-10.51a6.018 6.018 0 0 0 -.18-1.46l-.58-2.32a7.99 7.99 0 0 1 -.24-1.94v-4.14a1 1 0 0 1 2 0v4.14a6.018 6.018 0 0 0 .18 1.46l.58 2.32a7.99 7.99 0 0 1 .24 1.94z" fill="#59d1d1"/><path d="m40 27v4.14a7.99 7.99 0 0 1 -.24 1.94l-.58 2.32a6.018 6.018 0 0 0 -.18 1.46v10.51a12.755 12.755 0 0 1 -2 1.58v-12.09a7.99 7.99 0 0 1 .24-1.94l.58-2.32a6.018 6.018 0 0 0 .18-1.46v-4.14a1 1 0 0 1 2 0z" fill="#59d1d1"/><path d="m35 23v27a12.3 12.3 0 0 1 -2 .65v-27.65z" fill="#59d1d1"/><path d="m31 9.05v5.95h-2v-5.95a10.025 10.025 0 0 1 2 0z" fill="#59d1d1"/><path d="m31 34v16.96c-.33.03-.66.04-1 .04s-.67-.01-1-.04v-16.96a1 1 0 0 1 2 0z" fill="#59d1d1"/><path d="m24 10.47v4.53a1 1 0 0 1 -2 0v-3.24a12.646 12.646 0 0 1 2-1.29z" fill="#59d1d1"/><path d="m38 11.76v3.24a1 1 0 0 1 -2 0v-4.53a12.646 12.646 0 0 1 2 1.29z" fill="#59d1d1"/><circle cx="26" cy="23" fill="#6de8ea" r="2"/><circle cx="30" cy="15" fill="#6de8ea" r="2"/><circle cx="34" cy="23" fill="#6de8ea" r="2"/></svg>