<svg xmlns="http://www.w3.org/2000/svg" version="1.1" xmlns:xlink="http://www.w3.org/1999/xlink" xmlns:svgjs="http://svgjs.com/svgjs" width="512" height="512" x="0" y="0" viewBox="0 0 682.667 682.667" style="enable-background:new 0 0 512 512" xml:space="preserve" class=""><g><defs><clipPath id="a" clipPathUnits="userSpaceOnUse"><path d="M0 512h512V0H0Z" fill="#000000" data-original="#000000"></path></clipPath></defs><g clip-path="url(#a)" transform="matrix(1.33333 0 0 -1.33333 0 682.667)"><path d="m0 0-34.833 72.167h-251.5c-13.808 0-25-11.193-25-25v-447c0-13.808 11.192-25 25-25H9.651a24.88 24.88 0 0 1 14.653 4.75h21.069v404.271z" style="fill-opacity:1;fill-rule:nonzero;stroke:none" transform="translate(377.334 432.334)" fill="#eaf6ff" data-original="#eaf6ff" class="" opacity="1"></path><path d="m0 0-10.722 3.736v-387.758c0-13.807-11.193-25-25-25h34.015c13.808 0 25 11.193 25 25v368.5z" style="fill-opacity:1;fill-rule:nonzero;stroke:none" transform="translate(422.707 416.522)" fill="#d8ecfe" data-original="#d8ecfe" class="" opacity="1"></path><path d="M0 0h78.5L-25 103.5V25C-25 11.193-13.807 0 0 0" style="fill-opacity:1;fill-rule:nonzero;stroke:none" transform="translate(367.5 401)" fill="#b3dafe" data-original="#b3dafe" class="" opacity="1"></path><path d="M0 0v-447c0-13.807 11.193-25 25-25h330c13.807 0 25 11.193 25 25v368.5L276.5 25H25C11.193 25 0 13.807 0 0Z" style="stroke-width:15;stroke-linecap:round;stroke-linejoin:round;stroke-miterlimit:10;stroke-dasharray:519, 35, 384, 0;stroke-dashoffset:0;stroke-opacity:1" transform="translate(66 479.5)" fill="none" stroke="#000000" stroke-width="15" stroke-linecap="round" stroke-linejoin="round" stroke-miterlimit="10" stroke-dasharray="519, 35, 384, 0" stroke-dashoffset="0" stroke-opacity="" data-original="#000000" class=""></path><path d="M0 0h78.5L-25 103.5V25C-25 11.193-13.807 0 0 0Z" style="stroke-width:15;stroke-linecap:round;stroke-linejoin:round;stroke-miterlimit:10;stroke-dasharray:none;stroke-opacity:1" transform="translate(367.5 401)" fill="none" stroke="#000000" stroke-width="15" stroke-linecap="round" stroke-linejoin="round" stroke-miterlimit="10" stroke-dasharray="none" stroke-opacity="" data-original="#000000" class=""></path><path d="M0 0h260" style="stroke-width:15;stroke-linecap:round;stroke-linejoin:round;stroke-miterlimit:10;stroke-dasharray:none;stroke-opacity:1" transform="translate(126 339.719)" fill="none" stroke="#000000" stroke-width="15" stroke-linecap="round" stroke-linejoin="round" stroke-miterlimit="10" stroke-dasharray="none" stroke-opacity="" data-original="#000000" class=""></path><path d="M0 0h260" style="stroke-width:15;stroke-linecap:round;stroke-linejoin:round;stroke-miterlimit:10;stroke-dasharray:none;stroke-opacity:1" transform="translate(126 273.052)" fill="none" stroke="#000000" stroke-width="15" stroke-linecap="round" stroke-linejoin="round" stroke-miterlimit="10" stroke-dasharray="none" stroke-opacity="" data-original="#000000" class=""></path><path d="M0 0h260" style="stroke-width:15;stroke-linecap:round;stroke-linejoin:round;stroke-miterlimit:10;stroke-dasharray:none;stroke-opacity:1" transform="translate(126 206.385)" fill="none" stroke="#000000" stroke-width="15" stroke-linecap="round" stroke-linejoin="round" stroke-miterlimit="10" stroke-dasharray="none" stroke-opacity="" data-original="#000000" class=""></path><path d="M0 0h260" style="stroke-width:15;stroke-linecap:round;stroke-linejoin:round;stroke-miterlimit:10;stroke-dasharray:none;stroke-opacity:1" transform="translate(126 139.719)" fill="none" stroke="#000000" stroke-width="15" stroke-linecap="round" stroke-linejoin="round" stroke-miterlimit="10" stroke-dasharray="none" stroke-opacity="" data-original="#000000" class=""></path></g></g></svg>