<?xml version="1.0" encoding="UTF-8"?>
<svg xmlns="http://www.w3.org/2000/svg" xmlns:xlink="http://www.w3.org/1999/xlink" width="48px" height="48px" viewBox="0 0 48 48" version="1.1">
<g id="surface1">
<path style=" stroke:none;fill-rule:nonzero;fill:rgb(13.72549%,13.72549%,13.72549%);fill-opacity:1;" d="M 45.628906 18.433594 L 43.976562 7.695312 C 43.824219 6.71875 42.988281 6 42 6 C 31.066406 6 25.460938 0.632812 25.414062 0.585938 C 24.632812 -0.1875 23.375 -0.1875 22.59375 0.585938 C 22.539062 0.632812 16.933594 6 6 6 C 5.011719 6 4.175781 6.71875 4.023438 7.695312 L 2.371094 18.433594 C 0.855469 28.421875 5.738281 38.296875 14.601562 43.152344 L 23.039062 47.753906 C 23.636719 48.078125 24.359375 48.078125 24.957031 47.753906 L 33.394531 43.152344 C 42.257812 38.296875 47.144531 28.421875 45.628906 18.433594 Z M 31.484375 39.632812 L 24 43.722656 L 16.515625 39.640625 C 9.128906 35.597656 5.054688 27.367188 6.316406 19.039062 L 7.714844 9.957031 C 13.554688 9.828125 19.222656 7.960938 24 4.601562 C 28.773438 7.960938 34.441406 9.828125 40.277344 9.960938 L 41.679688 19.039062 C 42.941406 27.367188 38.871094 35.59375 31.484375 39.640625 Z M 31.484375 39.632812 "/>
<path style=" stroke:none;fill-rule:nonzero;fill:rgb(13.72549%,13.72549%,13.72549%);fill-opacity:1;" d="M 30.585938 16.585938 L 20 27.171875 L 17.414062 24.585938 C 16.910156 24.066406 16.167969 23.859375 15.46875 24.039062 C 14.769531 24.222656 14.222656 24.769531 14.039062 25.46875 C 13.859375 26.167969 14.066406 26.910156 14.585938 27.414062 L 18.585938 31.414062 C 19.367188 32.195312 20.632812 32.195312 21.414062 31.414062 L 33.414062 19.414062 C 34.171875 18.628906 34.160156 17.382812 33.390625 16.609375 C 32.617188 15.839844 31.371094 15.828125 30.585938 16.585938 Z M 30.585938 16.585938 "/>
</g>
</svg>
