<svg xmlns="http://www.w3.org/2000/svg" version="1.1" xmlns:xlink="http://www.w3.org/1999/xlink" xmlns:svgjs="http://svgjs.com/svgjs" width="512" height="512" x="0" y="0" viewBox="0 0 682.667 682.667" style="enable-background:new 0 0 512 512" xml:space="preserve" class=""><g><defs><clipPath id="a" clipPathUnits="userSpaceOnUse"><path d="M0 512h512V0H0Z" fill="#000000" data-original="#000000"></path></clipPath></defs><g clip-path="url(#a)" transform="matrix(1.33333 0 0 -1.33333 0 682.667)"><path d="M0 0h-20.965c-4.21 6.547-11.392 11.003-19.641 11.459-1.621.063-220.081.041-221.721.041l-27-73.5-76.5-30v-368.5c0-13.807 11.193-25 25-25h298.819c9.659 0 18.033 5.481 22.196 13.5H0Z" style="fill-opacity:1;fill-rule:nonzero;stroke:none" transform="translate(386.827 493)" fill="#eaf6ff" data-original="#eaf6ff" class=""></path><path d="M0 0h-31.181c13.807 0 25-11.193 25-25v-447c0-13.807-11.193-25-25-25H0c13.807 0 25 11.193 25 25v447C25-11.193 13.807 0 0 0" style="fill-opacity:1;fill-rule:nonzero;stroke:none" transform="translate(376 504.5)" fill="#d8ecfe" data-original="#d8ecfe" class=""></path><path d="M0 0h-78.5L25 103.5V25C25 11.193 13.807 0 0 0" style="fill-opacity:1;fill-rule:nonzero;stroke:none" transform="translate(99.5 401)" fill="#b3dafe" data-original="#b3dafe" class=""></path><path d="m0 0-13.269-1.043c-43.006-6.769-75.898-43.984-75.898-88.892 0-44.91 32.898-82.129 75.909-88.893l12.091-1.081c48.781 1.064 88 40.938 88 89.974C86.833-41.29 48.237-1.67 0 0" style="fill-opacity:1;fill-rule:nonzero;stroke:none" transform="translate(400.168 329.653)" fill="#587ae7" data-original="#0055a3" class="" opacity="1"></path><path d="M0 0a90.7 90.7 0 0 1-14.173-1.114C28.798-7.913 61.653-45.117 61.653-90c0-44.883-32.855-82.087-75.826-88.886A90.7 90.7 0 0 1 0-180c49.706 0 90 40.294 90 90S49.706 0 0 0" style="fill-opacity:1;fill-rule:nonzero;stroke:none" transform="translate(401 329.719)" fill="#2f4cc5" data-original="#004281" class="" opacity="1"></path><path d="M0 0h-78.5L25 103.5V25C25 11.193 13.807 0 0 0Z" style="stroke-width:15;stroke-linecap:round;stroke-linejoin:round;stroke-miterlimit:10;stroke-dasharray:none;stroke-opacity:1" transform="translate(99.5 401)" fill="none" stroke="#000000" stroke-width="15" stroke-linecap="round" stroke-linejoin="round" stroke-miterlimit="10" stroke-dasharray="none" stroke-opacity="" data-original="#000000" class=""></path><path d="M0 0h-255" style="stroke-width:15;stroke-linecap:round;stroke-linejoin:round;stroke-miterlimit:10;stroke-dasharray:none;stroke-opacity:1" transform="translate(336 339.719)" fill="none" stroke="#000000" stroke-width="15" stroke-linecap="round" stroke-linejoin="round" stroke-miterlimit="10" stroke-dasharray="none" stroke-opacity="" data-original="#000000" class=""></path><path d="M0 0h-185.365" style="stroke-width:15;stroke-linecap:round;stroke-linejoin:round;stroke-miterlimit:10;stroke-dasharray:none;stroke-opacity:1" transform="translate(266.365 273.052)" fill="none" stroke="#000000" stroke-width="15" stroke-linecap="round" stroke-linejoin="round" stroke-miterlimit="10" stroke-dasharray="none" stroke-opacity="" data-original="#000000" class=""></path><path d="M0 0h-185.365" style="stroke-width:15;stroke-linecap:round;stroke-linejoin:round;stroke-miterlimit:10;stroke-dasharray:none;stroke-opacity:1" transform="translate(266.365 206.385)" fill="none" stroke="#000000" stroke-width="15" stroke-linecap="round" stroke-linejoin="round" stroke-miterlimit="10" stroke-dasharray="none" stroke-opacity="" data-original="#000000" class=""></path><path d="M0 0h-255" style="stroke-width:15;stroke-linecap:round;stroke-linejoin:round;stroke-miterlimit:10;stroke-dasharray:none;stroke-opacity:1" transform="translate(336 139.719)" fill="none" stroke="#000000" stroke-width="15" stroke-linecap="round" stroke-linejoin="round" stroke-miterlimit="10" stroke-dasharray="none" stroke-opacity="" data-original="#000000" class=""></path><path d="M0 0c-49.706 0-90 40.294-90 90s40.294 90 90 90 90-40.294 90-90S49.706 0 0 0Z" style="stroke-width:15;stroke-linecap:round;stroke-linejoin:round;stroke-miterlimit:10;stroke-dasharray:482, 35, 800, 0;stroke-dashoffset:0;stroke-opacity:1" transform="translate(401 149.719)" fill="none" stroke="#000000" stroke-width="15" stroke-linecap="round" stroke-linejoin="round" stroke-miterlimit="10" stroke-dasharray="482, 35, 800, 0" stroke-dashoffset="0" stroke-opacity="" data-original="#000000" class=""></path><path d="M0 0v-97.495" style="stroke-width:15;stroke-linecap:round;stroke-linejoin:round;stroke-miterlimit:10;stroke-dasharray:none;stroke-opacity:1" transform="translate(401 288.466)" fill="none" stroke="#000000" stroke-width="15" stroke-linecap="round" stroke-linejoin="round" stroke-miterlimit="10" stroke-dasharray="none" stroke-opacity="" data-original="#000000" class=""></path><path d="M0 0h-97.495" style="stroke-width:15;stroke-linecap:round;stroke-linejoin:round;stroke-miterlimit:10;stroke-dasharray:none;stroke-opacity:1" transform="translate(449.748 239.719)" fill="none" stroke="#000000" stroke-width="15" stroke-linecap="round" stroke-linejoin="round" stroke-miterlimit="10" stroke-dasharray="none" stroke-opacity="" data-original="#000000" class=""></path><path d="M0 0c0 49.706 40.294 90 90 90v149.781c0 13.807-11.193 25-25 25h-251.5l-103.5-103.5v-368.5c0-13.807 11.193-25 25-25H65c13.807 0 25 11.193 25 25V-90C40.294-90 0-49.706 0 0Z" style="stroke-width:15;stroke-linecap:round;stroke-linejoin:round;stroke-miterlimit:10;stroke-dasharray:500, 35, 800, 0;stroke-dashoffset:0;stroke-opacity:1" transform="translate(311 239.719)" fill="none" stroke="#000000" stroke-width="15" stroke-linecap="round" stroke-linejoin="round" stroke-miterlimit="10" stroke-dasharray="500, 35, 800, 0" stroke-dashoffset="0" stroke-opacity="" data-original="#000000" class=""></path></g></g></svg>