<?xml version="1.0" encoding="UTF-8"?>
<svg xmlns="http://www.w3.org/2000/svg" xmlns:xlink="http://www.w3.org/1999/xlink" width="48px" height="48px" viewBox="0 0 48 48" version="1.1">
<g id="surface1">
<path style=" stroke:none;fill-rule:nonzero;fill:rgb(0%,0%,0%);fill-opacity:1;" d="M 39 9.871094 L 26.519531 5.371094 C 24.863281 4.765625 23.046875 4.765625 21.390625 5.371094 L 9 9.871094 C 7.207031 10.503906 6.003906 12.199219 6 14.101562 L 6 18 C 6 29.21875 15.585938 42 24 42 C 32.414062 42 42 29.21875 42 18 L 42 14.101562 C 41.996094 12.199219 40.792969 10.503906 39 9.871094 Z M 28.738281 24.40625 C 29.167969 24.773438 29.355469 25.347656 29.222656 25.894531 C 29.089844 26.441406 28.664062 26.871094 28.113281 27.003906 C 27.566406 27.132812 26.992188 26.949219 26.625 26.519531 L 24 23.863281 L 21.34375 26.519531 C 20.75 27.03125 19.863281 26.996094 19.308594 26.441406 C 18.753906 25.886719 18.71875 25 19.230469 24.40625 L 21.886719 21.75 L 19.230469 19.09375 C 18.71875 18.5 18.753906 17.613281 19.308594 17.058594 C 19.863281 16.503906 20.75 16.46875 21.34375 16.980469 L 24 19.636719 L 26.65625 16.980469 C 27.25 16.46875 28.136719 16.503906 28.691406 17.058594 C 29.246094 17.613281 29.28125 18.5 28.769531 19.09375 L 26.113281 21.75 Z M 28.738281 24.40625 "/>
</g>
</svg>
